<svg width="468" height="163" viewBox="0 0 468 163" fill="none" xmlns="http://www.w3.org/2000/svg">
<rect width="163" height="163" rx="81.5" fill="#2563EB"/>
<path d="M40.7141 92.1406V113H29.7375V56.125H49.1907C52.2896 56.125 55.0891 56.5807 57.5891 57.4922C60.0891 58.3776 62.2245 59.6146 63.9954 61.2031C65.7402 62.8177 67.0813 64.7448 68.0188 66.9844C68.9823 69.224 69.4641 71.7109 69.4641 74.4453C69.4641 76.9974 68.9823 79.3542 68.0188 81.5156C67.0813 83.6771 65.7402 85.5391 63.9954 87.1016C62.2245 88.6901 60.0891 89.9271 57.5891 90.8125C55.0891 91.6979 52.2896 92.1406 49.1907 92.1406H40.7141ZM40.7141 83.2344H49.1907C50.7532 83.2344 52.1073 83 53.2532 82.5312C54.399 82.0625 55.3625 81.4245 56.1438 80.6172C56.899 79.8099 57.4589 78.8854 57.8235 77.8438C58.2141 76.776 58.4094 75.6693 58.4094 74.5234C58.4094 73.1953 58.2141 71.9583 57.8235 70.8125C57.4589 69.6667 56.899 68.6641 56.1438 67.8047C55.3625 66.9453 54.399 66.2682 53.2532 65.7734C52.1073 65.2786 50.7532 65.0312 49.1907 65.0312H40.7141V83.2344Z" fill="white"/>
<path d="M105.866 79.3047L116.325 64.4512H129.465L113.513 87.7861L130.036 112H116.853L105.91 96.4434L95.0559 112H81.8284L98.3518 87.7861L82.4436 64.4512H95.5833L105.866 79.3047Z" fill="white"/>
<path d="M109.946 73.3079C114.257 66.9329 108.062 75.8772 115.942 64.6231L139.083 50.7627L118.904 79.5807C118.904 79.5807 105.634 79.683 109.946 73.3079Z" fill="white"/>
<path d="M214.268 92.0273V106.5H204.805V64.4883H219.629C230.215 64.4883 235.508 68.9512 235.508 77.877C235.508 82.0957 233.984 85.5137 230.938 88.1309C227.91 90.7285 223.857 92.0273 218.779 92.0273H214.268ZM214.268 71.7539V84.8496H217.988C223.027 84.8496 225.547 82.6426 225.547 78.2285C225.547 73.9121 223.027 71.7539 217.988 71.7539H214.268ZM266.855 106.5H241.66V64.4883H265.889V72.1934H251.123V81.5391H264.863V89.2148H251.123V98.8242H266.855V106.5ZM309.131 106.5H297.91L290.674 92.8184C290.4 92.3105 290.117 91.373 289.824 90.0059H289.707C289.57 90.6504 289.248 91.627 288.74 92.9355L281.475 106.5H270.195L283.584 85.4941L271.338 64.4883H282.852L288.857 77.0859C289.326 78.082 289.746 79.2637 290.117 80.6309H290.234C290.469 79.8105 290.908 78.5898 291.553 76.9688L298.232 64.4883H308.779L296.182 85.3184L309.131 106.5ZM339.336 106.5H314.141V64.4883H338.369V72.1934H323.604V81.5391H337.344V89.2148H323.604V98.8242H339.336V106.5ZM371.094 106.5H346.074V64.4883H355.537V98.8242H371.094V106.5ZM404.844 76.5L394.941 91.0312L404.785 106.5H394.121L389.785 98.4141C389.434 97.7695 389.014 96.8613 388.525 95.6895H388.408C388.115 96.5098 387.715 97.3887 387.207 98.3262L382.842 106.5H372.207L382.344 91.5586L372.822 76.5H383.545L387.822 84.9082C388.389 86.0215 388.789 86.959 389.023 87.7207H389.141C389.453 86.8027 389.873 85.8457 390.4 84.8496L394.766 76.5H404.844ZM437.539 106.5H428.311V101.93H428.164C425.879 105.465 422.822 107.232 418.994 107.232C412.041 107.232 408.564 103.023 408.564 94.6055V76.5H417.793V93.7852C417.793 98.0234 419.473 100.143 422.832 100.143C424.492 100.143 425.82 99.5664 426.816 98.4141C427.812 97.2422 428.311 95.6602 428.311 93.668V76.5H437.539V106.5ZM443.398 105.709V98.209C444.922 99.127 446.436 99.8105 447.939 100.26C449.463 100.709 450.898 100.934 452.246 100.934C453.887 100.934 455.176 100.709 456.113 100.26C457.07 99.8105 457.549 99.127 457.549 98.209C457.549 97.623 457.334 97.1348 456.904 96.7441C456.475 96.3535 455.918 96.0117 455.234 95.7188C454.57 95.4258 453.838 95.1621 453.037 94.9277C452.236 94.6934 451.465 94.4297 450.723 94.1367C449.531 93.6875 448.477 93.209 447.559 92.7012C446.66 92.1738 445.898 91.5684 445.273 90.8848C444.668 90.2012 444.199 89.4102 443.867 88.5117C443.555 87.6133 443.398 86.5488 443.398 85.3184C443.398 83.6387 443.76 82.1934 444.482 80.9824C445.225 79.7715 446.201 78.7852 447.412 78.0234C448.643 77.2422 450.039 76.6758 451.602 76.3242C453.184 75.9531 454.824 75.7676 456.523 75.7676C457.852 75.7676 459.199 75.875 460.566 76.0898C461.934 76.2852 463.281 76.5781 464.609 76.9688V84.1172C463.438 83.4336 462.178 82.9258 460.83 82.5938C459.502 82.2422 458.193 82.0664 456.904 82.0664C456.299 82.0664 455.723 82.125 455.176 82.2422C454.648 82.3398 454.18 82.4961 453.77 82.7109C453.359 82.9062 453.037 83.1699 452.803 83.502C452.568 83.8145 452.451 84.1758 452.451 84.5859C452.451 85.1328 452.627 85.6016 452.979 85.9922C453.33 86.3828 453.789 86.7246 454.355 87.0176C454.922 87.291 455.547 87.5449 456.23 87.7793C456.934 87.9941 457.627 88.2188 458.311 88.4531C459.541 88.8828 460.654 89.3516 461.65 89.8594C462.646 90.3672 463.496 90.9629 464.199 91.6465C464.922 92.3301 465.469 93.1309 465.84 94.0488C466.23 94.9668 466.426 96.0605 466.426 97.3301C466.426 99.1074 466.035 100.631 465.254 101.9C464.492 103.15 463.467 104.176 462.178 104.977C460.908 105.758 459.434 106.324 457.754 106.676C456.094 107.047 454.365 107.232 452.568 107.232C449.268 107.232 446.211 106.725 443.398 105.709Z" fill="white"/>
</svg>
